<?xml version="1.0" encoding="UTF-8"?><svg id="Capa_2" xmlns="http://www.w3.org/2000/svg" viewBox="0 0 786.92 245.6"><defs><style>.cls-1{fill:#fff;}.cls-2{fill:#00eac7;}</style></defs><g id="Layer_1"><path class="cls-1" d="M88.33,146.64v40.04c0,30.28-6,43.54-39.04,43.54H1.02c-.56,0-1.02-.46-1.02-1.02V1.02C0,.46.46,0,1.02,0h48.02c32.03,0,38.29,13.26,38.29,43.54v34.78c0,16.26-3.75,26.77-16.51,32.53v1.5c13.01,6.01,17.52,17.27,17.52,34.28ZM28.78,24.27v78.32h13.01c12.51,0,17.27-4.25,17.27-20.02v-39.29c0-14.76-3.75-19.02-16.76-19.02h-13.51ZM59.56,142.38c0-16.01-4.75-20.02-17.27-20.02h-13.51v83.33h14.01c12.76,0,16.77-4.25,16.77-19.02v-44.29Z"/><path class="cls-1" d="M176.48,229.42l-16.34-72.27h-20.02v72.05c0,.56-.46,1.02-1.02,1.02h-26.73c-.56,0-1.02-.46-1.02-1.02V1.02c0-.56.46-1.02,1.02-1.02h48.02c32.53,0,38.79,13.26,38.79,43.54v71.82c0,17.27-5.26,28.53-15.26,34.78l18.72,78.82c.15.64-.33,1.26-.99,1.26h-24.16c-.48,0-.89-.33-1-.8ZM153.89,134.62c13.01,0,17.02-4,17.02-19.02V43.29c0-15.01-4-19.02-17.02-19.02h-13.76v110.35h13.76Z"/><path class="cls-1" d="M288.26,183.42h-37.79l-4.91,45.88c-.06.52-.49.91-1.02.91h-25.96c-.61,0-1.09-.53-1.02-1.14L243.62.91c.06-.52.5-.91,1.02-.91h49.47c.52,0,.96.39,1.02.91l26.04,228.17c.07.61-.41,1.14-1.02,1.14h-25.96c-.52,0-.96-.39-1.02-.91l-4.91-45.88ZM285.51,159.15l-14.26-132.87h-3.75l-14.26,132.87h32.28Z"/><path class="cls-1" d="M341.83,0h26.73c.56,0,1.02.46,1.02,1.02v228.17c0,.56-.46,1.02-1.02,1.02h-26.73c-.56,0-1.02-.46-1.02-1.02V1.02c0-.56.46-1.02,1.02-1.02Z"/><path class="cls-1" d="M393.63,0h36.17c.49,0,.91.34,1,.82l36.37,182.85h2l-.75-24.27V1.02c0-.56.46-1.02,1.02-1.02h24.73c.56,0,1.02.46,1.02,1.02v228.17c0,.56-.46,1.02-1.02,1.02h-36.17c-.49,0-.91-.34-1-.82l-36.37-182.85h-2l.75,24.27v158.38c0,.56-.46,1.02-1.02,1.02h-24.73c-.56,0-1.02-.46-1.02-1.02V1.02c0-.56.46-1.02,1.02-1.02Z"/><path class="cls-1" d="M786.88,1.28l-36.7,140.35v87.56c0,.56-.46,1.02-1.02,1.02h-26.48c-.56,0-1.02-.46-1.02-1.02v-87.56L684.96,1.28c-.17-.65.32-1.28.99-1.28h25.64c.48,0,.89.33,1,.79l22.59,97.8h1.5L759.26.79c.11-.46.52-.79,1-.79h25.64c.67,0,1.16.63.99,1.28Z"/><path class="cls-1" d="M651.84,205.94V1.02C651.84.46,651.38,0,650.82,0h-26.73c-.56,0-1.02.46-1.02,1.02v183.86c1.07,1.14,2.08,2.36,2.99,3.66,1.44,2.05,2.8,4.25,3.92,6.38,4.1,7.74,6.32,16.41,6.28,24.43-.02,3.81-.55,7.45-1.54,10.86h56.39c.56,0,1.02-.46,1.02-1.02v-22.23c0-.56-.46-1.02-1.02-1.02h-39.27Z"/><path class="cls-1" d="M561.37,230.21c-.99-3.41-1.52-7.04-1.54-10.86-.05-8.02,2.18-16.7,6.28-24.44,1.13-2.12,2.48-4.33,3.92-6.37,1.06-1.5,2.23-2.89,3.49-4.18V24.27h28.25c.56,0,1.02-.46,1.02-1.02V1.02C602.8.46,602.34,0,601.78,0h-85.29c-.56,0-1.02.46-1.02,1.02v22.23c0,.56.46,1.02,1.02,1.02h28.26v204.92c0,.56.46,1.02,1.02,1.02h15.6Z"/><path class="cls-2" d="M598.04,184.18c-7.84,0-15.22,3.8-19.73,10.21-1.29,1.83-2.39,3.66-3.25,5.28-6.22,11.75-8.1,27.84,2.2,38.14h0s.03.02.04.04c.95.94,1.96,1.76,3,2.43,1.52,1.09,3.12,1.97,4.66,2.67,3.96,1.81,8.29,2.65,12.64,2.65h.9c4.35,0,8.68-.85,12.64-2.65,1.54-.7,3.14-1.58,4.66-2.67,1.05-.67,2.05-1.48,3-2.43.01-.01.03-.02.04-.04h0c10.29-10.3,8.42-26.39,2.2-38.14-.86-1.62-1.96-3.45-3.25-5.28-4.51-6.41-11.89-10.21-19.73-10.21h0Z"/></g></svg>