<svg width="394" height="533" viewBox="0 0 394 533" fill="none" xmlns="http://www.w3.org/2000/svg">
<path d="M0.539062 383.769L192.161 275.945C195.264 274.199 199.053 274.202 202.154 275.951L393.233 383.769V416.465C393.233 420.153 391.239 423.552 388.02 425.351L197.159 532L5.76329 425.349C2.53821 423.552 0.539062 420.149 0.539062 416.457V383.769Z" fill="#0F0F0F"/>
<path d="M0.539062 383.769L192.161 275.945C195.264 274.199 199.053 274.202 202.154 275.951L393.233 383.769M0.539062 383.769L197.159 494.942M0.539062 383.769V416.457C0.539062 420.149 2.53821 423.552 5.76329 425.349L197.159 532M393.233 383.769L197.159 494.942M393.233 383.769V416.465C393.233 420.153 391.239 423.552 388.02 425.351L197.159 532M197.159 494.942V532" stroke="#A5B2B0" stroke-opacity="0.5" stroke-width="1.07587"/>
<path d="M38.9549 387.371L37.0744 386.329L40.398 383.638C40.8572 383.262 41.1196 382.947 41.2289 382.668C41.3382 382.39 41.2508 382.123 41.0321 381.856C40.7697 381.59 40.3324 381.274 39.6764 380.911L35.041 378.341L28.853 381.771L27.0163 380.753L42.3222 372.269L48.86 375.893C49.8658 376.451 50.5655 377.032 51.0246 377.626C51.4619 378.232 51.5931 378.814 51.4401 379.359C51.2652 379.917 50.806 380.414 50.0407 380.838C48.9693 381.432 47.7229 381.735 46.3673 381.759C44.9898 381.771 43.7216 381.505 42.5408 380.947L42.4096 381.02C43.3061 381.59 43.7872 382.123 43.7872 382.608C43.7872 383.093 43.3936 383.674 42.6283 384.317L38.9549 387.371ZM41.2945 379.966C42.2784 380.511 43.328 380.802 44.4869 380.838C45.6457 380.875 46.6734 380.644 47.5918 380.135C48.4226 379.675 48.7944 379.129 48.7069 378.499C48.5976 377.881 48.0728 377.299 47.0888 376.754L42.4971 374.208L36.7027 377.42L41.2945 379.966ZM56.4005 391.102L47.2607 386.036C45.9269 386.775 45.2709 387.551 45.2709 388.351C45.2272 389.151 45.7957 389.854 46.9327 390.484C47.8292 390.981 48.8131 391.26 49.9501 391.308C51.0653 391.345 52.1148 391.199 53.1206 390.836L54.9136 391.83C53.4268 392.46 51.8524 392.726 50.1032 392.629C48.354 392.532 46.8015 392.108 45.4021 391.333C43.6966 390.387 42.8439 389.357 42.8657 388.23C42.8657 387.091 43.8715 385.975 45.8394 384.885C47.0639 384.206 48.354 383.733 49.7315 383.503C51.0872 383.261 52.4209 383.248 53.7329 383.442C55.0229 383.648 56.2474 384.06 57.3407 384.666C58.3684 385.236 59.0462 385.878 59.396 386.606C59.724 387.321 59.7022 388.036 59.3086 388.739C58.915 389.442 58.2372 390.084 57.2314 390.642L56.4005 391.102ZM52.2242 384.545C50.9122 384.497 49.6659 384.776 48.4852 385.357L55.832 389.43C56.8159 388.787 57.3188 388.121 57.3188 387.418C57.3188 386.715 56.794 386.06 55.7445 385.479C54.695 384.897 53.5142 384.582 52.2242 384.545ZM55.9843 396.811L62.6533 387.999L64.5119 389.029L62.0629 392.132C61.2102 393.211 60.2044 394.544 58.9799 396.144L59.0674 396.192C61.9536 395.514 64.337 394.944 66.3049 394.483L71.9024 393.126L73.761 394.156L57.8648 397.853L55.9843 396.811ZM77.5808 393.825C77.5589 393.571 77.7338 393.353 78.0618 393.171C78.3898 392.989 78.7834 392.892 79.2426 392.904C79.6799 392.904 80.0953 392.989 80.4233 393.171C80.7513 393.353 80.9043 393.583 80.9043 393.825C80.9043 394.068 80.7513 394.298 80.4233 394.48C80.0953 394.662 79.6799 394.746 79.2426 394.746C78.7834 394.759 78.3898 394.662 78.0618 394.48C77.7338 394.298 77.5589 394.08 77.5808 393.825ZM64.046 401.279L75.3286 395.025L77.0779 395.995L65.7953 402.249L64.046 401.279ZM84.1808 406.501L75.041 401.435C73.7072 402.174 73.0512 402.95 73.0512 403.75C73.0075 404.55 73.576 405.253 74.713 405.883C75.6095 406.38 76.5934 406.659 77.7304 406.707C78.8456 406.744 79.8951 406.598 80.9009 406.235L82.6939 407.228C81.207 407.859 79.6327 408.125 77.8835 408.028C76.1342 407.931 74.5818 407.507 73.1824 406.731C71.4769 405.786 70.6241 404.756 70.646 403.629C70.646 402.489 71.6518 401.374 73.6197 400.283C74.8442 399.605 76.1342 399.132 77.5118 398.902C78.8674 398.659 80.2012 398.647 81.5132 398.841C82.8032 399.047 84.0277 399.459 85.121 400.065C86.1486 400.635 86.8265 401.277 87.1763 402.005C87.5043 402.72 87.4824 403.435 87.0889 404.138C86.6953 404.841 86.0175 405.483 85.0116 406.041L84.1808 406.501ZM80.0044 399.944C78.6925 399.896 77.4462 400.174 76.2654 400.756L83.6122 404.829C84.5962 404.186 85.0991 403.52 85.0991 402.817C85.0991 402.114 84.5743 401.459 83.5248 400.877C82.4752 400.296 81.2945 399.98 80.0044 399.944ZM83.3273 411.967L90.4336 403.398L92.2922 404.428L89.7339 407.47L88.903 408.464C88.1159 409.385 87.3287 410.282 86.5415 411.179L86.629 411.228L90.9584 409.943L93.1012 409.313L98.327 407.773L99.9888 408.695L97.2119 411.591L96.0749 412.779L93.7572 415.179L93.8446 415.227C95.4408 414.779 97.0807 414.355 98.7425 413.918L100.535 413.458L106.024 412.04L107.882 413.07L92.4234 417.009L90.7178 416.064L97.0151 409.47L96.9276 409.422L85.0328 412.912L83.3273 411.967Z" fill="#7D7D7D"/>
<path d="M0.539062 247.202L192.161 139.379C195.264 137.633 199.053 137.635 202.154 139.385L393.233 247.202V279.899C393.233 283.587 391.239 286.986 388.02 288.785L197.159 395.433L5.76329 288.782C2.53821 286.985 0.539062 283.583 0.539062 279.891V247.202Z" fill="#0F0F0F"/>
<path d="M0.539062 247.202L192.161 139.379C195.264 137.633 199.053 137.635 202.154 139.385L393.233 247.202M0.539062 247.202L197.159 358.376M0.539062 247.202V279.891C0.539062 283.583 2.53821 286.985 5.76329 288.782L197.159 395.433M393.233 247.202L197.159 358.376M393.233 247.202V279.899C393.233 283.587 391.239 286.986 388.02 288.785L197.159 395.433M197.159 358.376V395.433" stroke="#A5B2B0" stroke-opacity="0.5" stroke-width="1.07587"/>
<path d="M50.9809 242.708C51.0028 244.175 49.7783 245.605 47.3294 246.962C44.8148 248.356 42.2347 249.035 39.589 248.999C36.9214 248.974 34.4287 248.296 32.0673 246.987L27.0163 244.187L42.3222 235.703L47.3731 238.503C49.7564 239.824 50.9372 241.23 50.9809 242.708ZM33.729 246.066C35.5876 247.096 37.4899 247.617 39.4797 247.605C41.4475 247.581 43.4373 247.035 45.4489 245.92C47.4387 244.817 48.4226 243.714 48.4664 242.623C48.4882 241.52 47.5699 240.454 45.7113 239.424L42.4971 237.642L30.5148 244.284L33.729 246.066ZM57.5535 255.175L48.4138 250.109C47.08 250.848 46.424 251.624 46.424 252.424C46.3803 253.224 46.9488 253.927 48.0858 254.557C48.9823 255.054 49.9662 255.333 51.1032 255.381C52.2184 255.417 53.2679 255.272 54.2737 254.908L56.0667 255.902C54.5798 256.533 53.0055 256.799 51.2563 256.702C49.507 256.605 47.9546 256.181 46.5552 255.405C44.8497 254.46 43.9969 253.43 44.0188 252.303C44.0188 251.163 45.0246 250.048 46.9925 248.957C48.217 248.279 49.507 247.806 50.8846 247.576C52.2402 247.333 53.574 247.321 54.8859 247.515C56.176 247.721 57.4005 248.133 58.4937 248.739C59.5214 249.309 60.1993 249.951 60.5491 250.678C60.8771 251.394 60.8552 252.109 60.4616 252.812C60.0681 253.515 59.3902 254.157 58.3844 254.714L57.5535 255.175ZM53.3772 248.618C52.0653 248.57 50.819 248.848 49.6382 249.43L56.985 253.502C57.969 252.86 58.4719 252.193 58.4719 251.491C58.4719 250.788 57.9471 250.133 56.8976 249.551C55.848 248.969 54.6673 248.654 53.3772 248.618ZM57.1374 260.883L63.8064 252.072L65.6649 253.102L63.216 256.205C62.3633 257.284 61.3574 258.617 60.133 260.217L60.2204 260.265C63.1067 259.586 65.49 259.017 67.4579 258.556L73.0555 257.199L74.9141 258.229L59.0178 261.926L57.1374 260.883ZM80.081 267.662L70.9412 262.596C69.6074 263.335 68.9514 264.111 68.9514 264.911C68.9077 265.711 69.4762 266.414 70.6132 267.044C71.5097 267.541 72.4936 267.82 73.6306 267.868C74.7458 267.905 75.7953 267.759 76.8011 267.396L78.5941 268.389C77.1073 269.02 75.5329 269.286 73.7837 269.189C72.0345 269.092 70.482 268.668 69.0826 267.893C67.3771 266.947 66.5244 265.917 66.5462 264.79C66.5462 263.65 67.552 262.535 69.5199 261.445C70.7444 260.766 72.0345 260.293 73.412 260.063C74.7677 259.82 76.1014 259.808 77.4134 260.002C78.7034 260.208 79.9279 260.62 81.0212 261.226C82.0489 261.796 82.7267 262.438 83.0765 263.166C83.4045 263.881 83.3827 264.596 82.9891 265.299C82.5955 266.002 81.9177 266.644 80.9119 267.202L80.081 267.662ZM75.9047 261.105C74.5927 261.057 73.3464 261.335 72.1657 261.917L79.5125 265.99C80.4964 265.347 80.9993 264.681 80.9993 263.978C80.9993 263.275 80.4745 262.62 79.425 262.038C78.3755 261.457 77.1947 261.142 75.9047 261.105ZM76.7653 271.763L92.0711 263.279L93.8204 264.249L78.5145 272.733L76.7653 271.763ZM83.9216 275.294C83.4843 274.518 83.4843 273.718 83.8779 272.918C84.2496 272.106 85.0367 271.379 86.2394 270.712C87.3982 270.07 88.6883 269.646 90.1533 269.44C91.5745 269.234 92.9958 269.246 94.417 269.476C95.7946 269.706 97.019 270.094 98.0686 270.676C99.0963 271.246 99.796 271.924 100.233 272.7C100.627 273.476 100.649 274.263 100.299 275.063C99.9053 275.863 99.1619 276.591 98.003 277.233C96.8004 277.9 95.4666 278.324 94.0235 278.542C92.5585 278.748 91.1154 278.748 89.7378 278.518C88.3166 278.287 87.114 277.887 86.0863 277.318C85.0367 276.736 84.3152 276.069 83.9216 275.294ZM91.8151 277.415C93.3456 277.391 94.8325 277.003 96.21 276.239C97.5438 275.5 98.2216 274.688 98.2654 273.839C98.3091 272.991 97.7187 272.227 96.4943 271.549C95.2698 270.87 93.8704 270.53 92.3398 270.555C90.8092 270.579 89.3661 270.967 88.0323 271.706C86.6548 272.47 85.9332 273.282 85.8895 274.13C85.8239 274.991 86.4361 275.766 87.6606 276.445C88.8851 277.124 90.2626 277.451 91.8151 277.415ZM113.93 280.316C114.192 281.019 114.083 281.734 113.624 282.474C113.121 283.213 112.29 283.916 111.109 284.571C109.907 285.237 108.638 285.698 107.326 285.964C105.971 286.231 104.681 286.292 103.412 286.146C102.122 285.989 101.007 285.637 100.001 285.08C98.9738 284.51 98.4053 283.831 98.3178 283.055C98.2085 282.268 98.6021 281.492 99.4767 280.765L99.3892 280.716L92.1299 284.74L90.3806 283.771L105.686 275.286L107.348 276.208L104.156 278.074L104.243 278.123C105.555 277.638 106.933 277.432 108.354 277.492C109.753 277.541 111 277.844 112.027 278.413C113.033 278.971 113.646 279.601 113.93 280.316ZM105.052 284.801C106.561 284.74 107.982 284.34 109.338 283.589C110.672 282.849 111.393 282.062 111.503 281.225C111.612 280.389 111.131 279.662 109.994 279.032C109.251 278.619 108.42 278.353 107.501 278.232C106.583 278.11 105.643 278.123 104.746 278.28C103.828 278.426 103.041 278.692 102.341 279.08L101.204 279.71C100.504 280.098 100.001 280.547 99.7391 281.056C99.4548 281.553 99.4548 282.062 99.6735 282.571C99.8921 283.08 100.373 283.54 101.117 283.952C102.254 284.583 103.544 284.861 105.052 284.801ZM123.257 291.595L114.117 286.529C112.783 287.268 112.127 288.044 112.127 288.844C112.084 289.644 112.652 290.347 113.789 290.977C114.686 291.474 115.669 291.753 116.806 291.801C117.922 291.837 118.971 291.692 119.977 291.328L121.77 292.322C120.283 292.952 118.709 293.219 116.96 293.122C115.21 293.025 113.658 292.601 112.258 291.825C110.553 290.88 109.7 289.85 109.722 288.722C109.722 287.583 110.728 286.468 112.696 285.377C113.92 284.699 115.21 284.226 116.588 283.996C117.943 283.753 119.277 283.741 120.589 283.935C121.879 284.141 123.104 284.553 124.197 285.159C125.225 285.729 125.903 286.371 126.252 287.098C126.58 287.813 126.558 288.529 126.165 289.232C125.771 289.934 125.093 290.577 124.088 291.134L123.257 291.595ZM119.08 285.038C117.769 284.989 116.522 285.268 115.341 285.85L122.688 289.922C123.672 289.28 124.175 288.613 124.175 287.91C124.175 287.207 123.65 286.553 122.601 285.971C121.551 285.389 120.371 285.074 119.08 285.038ZM128.84 292.848C130.655 292.108 132.273 291.745 133.716 291.769C135.138 291.805 136.559 292.205 137.98 292.993L136.406 293.866C135.138 293.26 133.957 292.872 132.82 292.726C131.683 292.581 130.568 292.642 129.431 292.933C128.294 293.223 127.069 293.732 125.757 294.46L121.734 296.69L119.985 295.72L131.267 289.466L132.951 290.399L128.753 292.799L128.84 292.848ZM128.835 299.874C128.594 298.99 129.075 298.19 130.278 297.45L132.071 298.444C131.349 298.917 131.087 299.426 131.262 299.983C131.437 300.541 132.049 301.099 133.077 301.668C133.951 302.153 134.804 302.456 135.657 302.565C136.51 302.674 137.231 302.565 137.8 302.25C138.193 302.032 138.39 301.777 138.39 301.511C138.368 301.256 138.171 300.929 137.734 300.541L135.176 298.275C134.454 297.656 134.104 297.075 134.083 296.505C134.039 295.947 134.454 295.451 135.241 295.014C136.269 294.445 137.472 294.214 138.915 294.335C140.358 294.457 141.779 294.905 143.222 295.705C144.709 296.529 145.54 297.402 145.715 298.275C145.89 299.147 145.365 299.923 144.163 300.59L142.37 299.596C143.113 299.184 143.397 298.711 143.288 298.165C143.157 297.608 142.632 297.075 141.692 296.553C140.817 296.069 139.943 295.778 139.112 295.657C138.259 295.547 137.581 295.657 137.056 295.947C136.685 296.153 136.488 296.408 136.51 296.711C136.532 297.014 136.728 297.341 137.1 297.669L139.615 299.887C140.402 300.614 140.817 301.232 140.839 301.753C140.861 302.274 140.467 302.759 139.658 303.207C138.609 303.789 137.319 304.02 135.876 303.898C134.411 303.765 132.967 303.304 131.546 302.517C129.95 301.632 129.032 300.759 128.835 299.874Z" fill="#7D7D7D"/>
<path d="M0.539062 110.636L192.161 2.81262C195.264 1.06659 199.053 1.06885 202.154 2.81856L393.233 110.636V143.333C393.233 147.02 391.239 150.419 388.02 152.218L197.159 258.867L5.76329 152.216C2.53821 150.419 0.539062 147.016 0.539062 143.324V110.636Z" fill="#0F0F0F"/>
<path d="M0.539062 110.636L192.161 2.81262C195.264 1.06659 199.053 1.06885 202.154 2.81856L393.233 110.636M0.539062 110.636L197.159 221.809M0.539062 110.636V143.324C0.539062 147.016 2.53821 150.419 5.76329 152.216L197.159 258.867M393.233 110.636L197.159 221.809M393.233 110.636V143.333C393.233 147.02 391.239 150.419 388.02 152.218L197.159 258.867M197.159 221.809V258.867" stroke="#A5B2B0" stroke-opacity="0.5" stroke-width="1.07587"/>
<path d="M73.9474 113.996C72.9197 114.566 71.8265 114.905 70.6457 115.026C69.465 115.148 68.3061 115.087 67.1472 114.833C65.9884 114.578 64.917 114.178 63.9112 113.621L59.8004 111.342L53.853 114.639L52.0163 113.621L67.3222 105.136L73.2696 108.433C76.8337 110.409 77.0523 112.275 73.9474 113.996ZM65.2449 112.518C67.7813 113.924 70.0772 114.081 72.0888 112.966C73.204 112.348 73.6413 111.718 73.4008 111.1C73.1603 110.481 72.4606 109.827 71.2798 109.172L67.4971 107.076L61.4622 110.421L65.2449 112.518ZM73.916 117.978C75.7308 117.239 77.3489 116.876 78.792 116.9C80.2132 116.936 81.6345 117.336 83.0558 118.124L81.4814 118.997C80.2132 118.391 79.0325 118.003 77.8955 117.857C76.7585 117.712 75.6434 117.772 74.5063 118.063C73.3693 118.354 72.1449 118.863 70.8329 119.59L66.8097 121.821L65.0605 120.851L76.343 114.597L78.0267 115.53L73.8285 117.93L73.916 117.978ZM75.1838 126.026C74.7465 125.25 74.7465 124.451 75.1401 123.651C75.5118 122.839 76.299 122.111 77.5016 121.445C78.6604 120.802 79.9505 120.378 81.4155 120.172C82.8368 119.966 84.258 119.978 85.6793 120.208C87.0568 120.439 88.2813 120.827 89.3308 121.408C90.3585 121.978 91.0582 122.657 91.4955 123.432C91.8891 124.208 91.9109 124.996 91.5611 125.796C91.1675 126.596 90.4241 127.323 89.2652 127.965C88.0626 128.632 86.7288 129.056 85.2857 129.274C83.8207 129.48 82.3776 129.48 81.0001 129.25C79.5788 129.02 78.3762 128.62 77.3485 128.05C76.299 127.468 75.5774 126.802 75.1838 126.026ZM83.0773 128.147C84.6079 128.123 86.0947 127.735 87.4722 126.972C88.806 126.232 89.4839 125.42 89.5276 124.572C89.5713 123.723 88.981 122.96 87.7565 122.281C86.532 121.602 85.1326 121.263 83.6021 121.287C82.0715 121.311 80.6283 121.699 79.2945 122.439C77.917 123.202 77.1955 124.014 77.1517 124.863C77.0861 125.723 77.6984 126.499 78.9228 127.178C80.1473 127.856 81.5248 128.184 83.0773 128.147ZM109.762 128.661L111.511 129.631L96.2053 138.115L94.5435 137.194L97.6921 135.351L97.6047 135.303C96.2709 135.776 94.8715 135.994 93.4721 135.945C92.0508 135.885 90.8264 135.57 89.8206 135.012C88.8148 134.455 88.1588 133.824 87.8964 133.121C87.6121 132.406 87.7215 131.691 88.2244 130.952C88.6836 130.212 89.5363 129.522 90.7389 128.855C91.9197 128.2 93.166 127.728 94.5216 127.461C95.8336 127.195 97.1236 127.134 98.4137 127.291C99.6819 127.437 100.841 127.788 101.847 128.346C102.852 128.903 103.399 129.594 103.508 130.382C103.596 131.158 103.224 131.921 102.371 132.661L102.459 132.709L109.762 128.661ZM94.3467 135.194C95.2651 135.315 96.1616 135.303 97.0799 135.158C97.9764 135 98.8073 134.733 99.507 134.345L100.644 133.715C101.344 133.327 101.803 132.879 102.087 132.382C102.349 131.873 102.393 131.364 102.175 130.855C101.956 130.346 101.475 129.885 100.731 129.473C99.5944 128.843 98.2606 128.564 96.7519 128.625C95.2432 128.685 93.8438 129.097 92.51 129.837C91.1544 130.588 90.4109 131.364 90.3016 132.2C90.1923 133.036 90.717 133.764 91.8541 134.394C92.5975 134.806 93.4284 135.073 94.3467 135.194ZM118.302 137.855L120.073 138.837L108.79 145.091L107.128 144.17L110.299 142.291L110.168 142.218C108.921 142.739 107.588 142.994 106.21 142.958C104.811 142.909 103.586 142.594 102.537 142.012C101.312 141.334 100.7 140.582 100.722 139.746C100.722 138.922 101.356 138.158 102.602 137.467L110.102 133.31L111.851 134.28L104.92 138.122C103.98 138.643 103.499 139.2 103.499 139.831C103.477 140.449 103.936 140.994 104.854 141.503C105.882 142.073 107.085 142.327 108.506 142.243C109.884 142.158 111.217 141.782 112.486 141.079L118.302 137.855ZM120.147 141.617C121.503 141.375 122.859 141.351 124.171 141.545C125.482 141.738 126.707 142.126 127.8 142.732C128.784 143.278 129.462 143.896 129.856 144.55C130.249 145.205 130.293 145.859 130.031 146.514C129.746 147.156 129.178 147.762 128.281 148.308L126.488 147.314C127.407 146.756 127.844 146.15 127.822 145.484C127.778 144.805 127.254 144.175 126.226 143.605C125.089 142.975 123.799 142.696 122.334 142.757C120.869 142.817 119.513 143.205 118.223 143.92C117.349 144.405 116.714 144.926 116.321 145.484C115.927 146.041 115.818 146.562 115.993 147.096C116.168 147.629 116.649 148.089 117.392 148.502C118.398 149.059 119.535 149.35 120.781 149.362C122.028 149.374 123.165 149.108 124.171 148.598L125.964 149.592C124.958 150.101 123.864 150.441 122.684 150.61C121.481 150.768 120.3 150.744 119.12 150.526C117.917 150.32 116.824 149.932 115.818 149.374C114.725 148.768 114.003 148.102 113.675 147.362C113.347 146.623 113.413 145.859 113.872 145.096C114.331 144.332 115.162 143.629 116.386 142.95C117.545 142.308 118.792 141.86 120.147 141.617ZM138.716 150.625L135.611 148.904L128.548 152.819C127.936 153.158 127.652 153.437 127.739 153.679C127.783 153.922 128.133 154.213 128.745 154.552C129.138 154.77 129.641 155.025 130.254 155.316L128.701 156.176C128.045 155.861 127.477 155.57 127.018 155.316C126.165 154.843 125.574 154.443 125.312 154.104C125.006 153.764 124.962 153.425 125.181 153.085C125.356 152.746 125.881 152.358 126.69 151.91L133.861 147.934L131.85 146.819L133.162 146.092L135.173 147.207L138.125 145.571L139.809 146.504L136.923 148.177L140.027 149.898L138.716 150.625ZM152.222 152.197L138.578 159.76L146.603 164.208L144.941 165.129L135.08 159.663L150.385 151.179L152.222 152.197ZM161.731 168.497L152.591 163.431C151.257 164.17 150.601 164.946 150.601 165.746C150.557 166.546 151.126 167.249 152.263 167.879C153.159 168.376 154.143 168.655 155.28 168.703C156.395 168.74 157.445 168.594 158.451 168.231L160.244 169.224C158.757 169.855 157.183 170.121 155.433 170.024C153.684 169.927 152.132 169.503 150.732 168.727C149.027 167.782 148.174 166.752 148.196 165.625C148.196 164.485 149.202 163.37 151.169 162.279C152.394 161.601 153.684 161.128 155.062 160.898C156.417 160.655 157.751 160.643 159.063 160.837C160.353 161.043 161.577 161.455 162.671 162.061C163.698 162.631 164.376 163.273 164.726 164.001C165.054 164.716 165.032 165.431 164.639 166.134C164.245 166.837 163.567 167.479 162.561 168.037L161.731 168.497ZM157.554 161.94C156.242 161.892 154.996 162.17 153.815 162.752L161.162 166.825C162.146 166.182 162.649 165.516 162.649 164.813C162.649 164.11 162.124 163.455 161.075 162.873C160.025 162.292 158.844 161.976 157.554 161.94ZM163.949 169.945C165.261 170.042 166.639 170.466 168.038 171.242C169.175 171.872 170.028 172.321 170.662 172.6C171.252 172.878 171.843 173.036 172.411 173.06C172.958 173.097 173.526 172.975 174.095 172.66C174.685 172.333 174.948 171.897 174.904 171.339C174.86 170.782 174.27 170.188 173.133 169.557C172.018 168.939 170.859 168.636 169.678 168.661C168.476 168.673 167.404 168.879 166.442 169.315L164.693 168.345C165.524 167.885 166.529 167.57 167.667 167.424C168.804 167.279 169.984 167.303 171.231 167.509C172.455 167.727 173.636 168.139 174.729 168.745C176.456 169.703 177.309 170.636 177.309 171.509C177.287 172.394 176.631 173.193 175.363 173.896L168.06 177.945L166.398 177.023L170.072 174.89L169.984 174.842C168.41 175.545 166.836 175.836 165.283 175.702C163.731 175.569 162.375 175.181 161.194 174.527C160.014 173.872 159.358 173.218 159.205 172.527C159.051 171.836 159.467 171.218 160.473 170.66C161.479 170.103 162.637 169.848 163.949 169.945ZM163.118 173.945C163.949 174.406 164.89 174.733 165.939 174.878C166.967 175.036 167.973 175.06 168.935 174.915C169.875 174.781 170.684 174.551 171.318 174.199L173.024 173.254L172.936 173.206C172.411 173.4 171.887 173.496 171.384 173.484C170.859 173.484 170.225 173.351 169.481 173.084C168.738 172.818 167.754 172.369 166.595 171.751C165.874 171.4 165.174 171.206 164.452 171.169C163.731 171.133 163.097 171.266 162.572 171.557C161.304 172.26 161.5 173.048 163.118 173.945ZM194.683 175.734L196.432 176.703L181.126 185.187L179.464 184.266L182.613 182.424L182.526 182.375C181.192 182.848 179.792 183.066 178.393 183.018C176.972 182.957 175.747 182.642 174.742 182.085C173.736 181.527 173.08 180.897 172.817 180.194C172.533 179.479 172.642 178.764 173.145 178.024C173.605 177.285 174.457 176.594 175.66 175.927C176.841 175.273 178.087 174.8 179.443 174.534C180.755 174.267 182.045 174.206 183.335 174.364C184.603 174.509 185.762 174.861 186.768 175.418C187.773 175.976 188.32 176.667 188.429 177.455C188.517 178.23 188.145 178.994 187.292 179.733L187.38 179.782L194.683 175.734ZM179.268 182.266C180.186 182.388 181.083 182.375 182.001 182.23C182.897 182.072 183.728 181.806 184.428 181.418L185.565 180.788C186.265 180.4 186.724 179.951 187.008 179.454C187.27 178.945 187.314 178.436 187.096 177.927C186.877 177.418 186.396 176.958 185.652 176.546C184.515 175.915 183.182 175.637 181.673 175.697C180.164 175.758 178.765 176.17 177.431 176.909C176.075 177.661 175.332 178.436 175.223 179.273C175.113 180.109 175.638 180.836 176.775 181.466C177.518 181.878 178.349 182.145 179.268 182.266Z" fill="#7D7D7D"/>
<path d="M122.688 96.7182L196.587 55.1357L270.281 96.7182V111.252L196.587 152.431L122.688 111.252V96.7182Z" fill="url(#paint0_linear_882_1424)"/>
<path d="M122.688 96.7182L196.587 55.1357L270.281 96.7182M122.688 96.7182L196.587 138.502M122.688 96.7182V111.252L196.587 152.431M270.281 96.7182L196.587 138.502M270.281 96.7182V111.252L196.587 152.431M196.587 138.502V152.431" stroke="url(#paint1_linear_882_1424)" stroke-width="1.26836"/>
<defs>
<linearGradient id="paint0_linear_882_1424" x1="196.732" y1="74.9899" x2="185.254" y2="112.668" gradientUnits="userSpaceOnUse">
<stop stop-color="#045D4F"/>
<stop offset="1" stop-color="#0B312A"/>
</linearGradient>
<linearGradient id="paint1_linear_882_1424" x1="230.337" y1="66.1909" x2="198.832" y2="135.653" gradientUnits="userSpaceOnUse">
<stop stop-color="#33F1BB" stop-opacity="0.8"/>
<stop offset="1" stop-color="#175F4A"/>
</linearGradient>
</defs>
</svg>
